# xmcd
# 
# Track frame offsets:
#     150
#     18223
#     35889
#     51574
#     66633
#     75363
#     94442
#     106480
#     116655
#     135196
#     149817
#     181192
#     196875
#     210097
# 
# Disc length: 3044
# 
# Revision: 0
# Processed by: cddbd v1.5.2PL0 Copyright (c) Steve Scherf et al.
# Submitted via: fre:ac v1.0.27
# 
DISCID=ca0be20e
DTITLE=Krzysztof Myszkowski - Nowa przeszłość
DYEAR=2015
DGENRE=Country
TTITLE0=LEKCJA HISTORII
TTITLE1=ZNAK
TTITLE2=ROZDRAZNIENIE
TTITLE3=RADOSC ZYCIA
TTITLE4=NATURALNY PROCES ROZWOJU
TTITLE5=CZTERDZIESTOLETNIE DZIECI
TTITLE6=OSWIADCZYNY
TTITLE7=STUDIUJAC ZEN
TTITLE8=SPOIWO ZYCIA
TTITLE9=JESZCZE O PISANIU
TTITLE10=ZYDOWSKI POETA
TTITLE11=NOWA PRZESZLOSC
TTITLE12=NAD RZEKA ZYCIA
TTITLE13=NAJTRUDNIEJ
EXTD=
EXTT0=
EXTT1=
EXTT2=
EXTT3=
EXTT4=
EXTT5=
EXTT6=
EXTT7=
EXTT8=
EXTT9=
EXTT10=
EXTT11=
EXTT12=
EXTT13=
PLAYORDER=
